<?xml version="1.0" standalone="no"?>
<!DOCTYPE svg PUBLIC "-//W3C//DTD SVG 20010904//EN"
 "http://www.w3.org/TR/2001/REC-SVG-20010904/DTD/svg10.dtd">
<svg version="1.0" xmlns="http://www.w3.org/2000/svg"
 width="512.000000pt" height="512.000000pt" viewBox="0 0 512.000000 512.000000"
 preserveAspectRatio="xMidYMid meet">

<g transform="translate(0.000000,512.000000) scale(0.100000,-0.100000)"
fill="#000000" stroke="none">
<path d="M3131 5104 c-89 -24 -171 -73 -246 -149 -163 -163 -220 -394 -165
-668 25 -125 70 -255 238 -687 157 -406 212 -534 302 -708 l69 -133 -15 -66
c-23 -101 7 -148 97 -148 67 0 138 84 259 305 135 246 259 402 517 646 381
362 451 443 514 592 85 203 76 452 -22 642 -93 180 -254 285 -439 285 -77 0
-92 -4 -160 -36 -80 -38 -136 -80 -239 -175 -55 -50 -64 -56 -73 -41 -5 10
-36 53 -70 98 -154 204 -369 296 -567 243z m181 -248 c102 -30 188 -120 278
-286 63 -117 96 -150 152 -150 24 0 55 7 68 17 14 9 86 75 160 147 172 167
240 203 338 177 54 -15 128 -88 166 -166 65 -133 59 -263 -19 -420 -77 -155
-122 -206 -404 -460 -196 -176 -388 -397 -541 -621 l-58 -84 -41 122 c-24 68
-91 240 -151 383 -148 356 -181 440 -229 586 -137 424 -73 707 174 762 37 9
62 7 107 -7z"/>
<path d="M917 3175 c-221 -56 -425 -255 -508 -498 -101 -294 -50 -617 165
-1046 142 -282 258 -478 503 -847 158 -238 207 -331 238 -450 17 -67 19 -188
4 -253 -9 -39 -7 -47 10 -64 33 -33 65 -16 100 53 41 84 55 157 48 271 -10
182 -90 366 -382 874 -342 596 -455 887 -455 1172 0 64 6 132 15 166 36 140
129 259 255 327 61 33 70 35 160 35 89 0 101 -2 161 -33 133 -67 285 -239 411
-463 67 -121 97 -149 158 -149 41 0 74 17 166 87 168 127 350 174 467 118 114
-54 183 -202 158 -338 -36 -198 -169 -362 -491 -608 -265 -202 -390 -321 -526
-499 -89 -115 -114 -162 -114 -211 0 -111 134 -189 236 -136 17 9 60 56 96
104 77 103 243 267 413 408 368 305 494 441 585 630 164 339 66 743 -214 880
-203 99 -414 84 -640 -45 -48 -28 -89 -50 -90 -48 -1 2 -37 57 -81 123 -143
216 -311 360 -490 421 -99 34 -265 42 -358 19z"/>
</g>
</svg>
