<?xml version="1.0" standalone="no"?>
<!DOCTYPE svg PUBLIC "-//W3C//DTD SVG 20010904//EN"
 "http://www.w3.org/TR/2001/REC-SVG-20010904/DTD/svg10.dtd">
<svg version="1.0" xmlns="http://www.w3.org/2000/svg"
 width="512.000000pt" height="512.000000pt" viewBox="0 0 512.000000 512.000000"
 preserveAspectRatio="xMidYMid meet">

<g transform="translate(0.000000,512.000000) scale(0.100000,-0.100000)"
fill="#000000" stroke="none">
<path d="M2368 4791 c-162 -53 -287 -223 -288 -389 l0 -44 -32 9 c-18 4 -67 8
-108 8 -61 -1 -85 -6 -126 -28 -132 -68 -219 -223 -199 -355 18 -123 30 -139
289 -400 132 -134 250 -248 261 -254 53 -29 70 -18 259 171 l181 181 65 -65
c69 -70 112 -92 151 -76 13 5 158 144 321 308 322 323 337 342 359 472 31 172
-70 360 -236 442 -128 63 -269 47 -406 -45 l-67 -44 -45 32 c-122 87 -263 116
-379 77z m236 -140 c27 -13 75 -46 107 -73 35 -29 68 -48 83 -48 14 0 46 18
78 45 154 133 307 138 422 15 60 -64 79 -110 80 -195 1 -119 -10 -135 -312
-437 l-266 -268 -48 47 c-47 46 -47 47 -30 67 32 37 50 72 68 131 47 162 -36
339 -194 417 -38 19 -63 23 -133 23 -80 0 -92 -3 -159 -37 -41 -21 -76 -35
-79 -32 -3 3 -6 42 -6 87 0 73 3 88 31 137 33 58 104 120 158 138 50 18 145 9
200 -17z m-552 -425 c21 -10 57 -36 82 -57 57 -51 84 -51 146 1 106 89 209
103 293 43 52 -38 97 -119 97 -177 0 -96 -8 -107 -243 -344 l-221 -222 -204
202 c-207 207 -245 254 -257 320 -16 86 40 193 124 238 44 25 128 23 183 -4z"/>
<path d="M4216 4598 c-7 -13 -19 -45 -26 -73 -36 -151 -166 -285 -325 -335
-53 -17 -75 -37 -75 -70 0 -33 22 -53 75 -70 159 -50 289 -184 325 -335 18
-75 34 -95 75 -95 41 0 57 20 74 94 37 151 168 287 326 336 53 17 75 37 75 70
0 33 -22 53 -75 70 -158 50 -289 185 -325 335 -18 75 -34 95 -75 95 -25 0 -38
-6 -49 -22z m155 -377 c24 -24 61 -55 82 -69 20 -13 37 -28 37 -31 0 -4 -27
-26 -61 -51 -52 -38 -142 -139 -156 -178 -4 -8 -15 1 -31 25 -49 73 -91 119
-146 158 -31 22 -56 42 -56 45 0 3 27 25 61 50 52 38 142 139 156 178 4 8 18
-6 38 -35 18 -26 52 -68 76 -92z"/>
<path d="M1132 4138 c-5 -7 -17 -38 -26 -69 -8 -30 -29 -74 -46 -98 -32 -44
-107 -98 -150 -108 -49 -11 -70 -31 -70 -67 0 -38 18 -56 75 -75 90 -30 165
-111 194 -209 21 -71 55 -96 98 -72 19 11 30 29 39 62 27 105 95 182 194 219
30 11 60 25 67 31 32 26 -1 108 -42 108 -27 0 -109 47 -141 82 -36 37 -68 98
-79 146 -3 18 -13 39 -22 47 -18 18 -77 20 -91 3z m105 -287 l53 -57 -55 -57
-55 -57 -58 57 -57 57 55 57 c30 31 57 57 60 57 3 0 29 -26 57 -57z"/>
<path d="M1610 3214 c-365 -43 -657 -181 -900 -424 -206 -206 -340 -453 -402
-743 -31 -149 -31 -418 1 -567 64 -298 188 -527 401 -741 210 -211 438 -335
738 -401 140 -31 434 -31 574 0 175 39 324 97 462 180 37 23 72 42 77 42 5 0
34 -16 66 -37 126 -80 320 -156 490 -190 133 -26 425 -24 555 5 295 65 526
190 734 397 175 174 287 355 358 574 57 175 70 264 70 461 -1 141 -5 195 -22
277 -62 289 -196 538 -402 743 -212 213 -470 348 -775 407 -136 26 -377 24
-523 -5 -178 -36 -385 -118 -509 -204 l-43 -29 -42 29 c-123 84 -333 168 -507
203 -92 18 -328 32 -401 23z m410 -158 c833 -191 1271 -1081 914 -1855 -56
-121 -160 -267 -264 -371 -251 -252 -583 -390 -935 -390 -460 0 -876 233
-1126 630 -321 509 -245 1186 181 1619 209 213 491 354 783 391 118 15 327 4
447 -24z m1515 24 c593 -68 1072 -531 1159 -1121 119 -799 -502 -1519 -1309
-1519 -212 0 -416 50 -606 147 -60 31 -108 59 -108 62 1 3 32 35 69 69 l68 64
44 -25 c105 -62 276 -112 431 -128 328 -33 666 90 902 326 170 170 275 365
321 600 20 103 20 315 0 416 -85 435 -407 781 -833 896 -90 25 -114 27 -288
27 -177 0 -197 -2 -290 -28 -55 -15 -142 -47 -194 -71 l-93 -45 -68 63 c-37
34 -66 65 -64 69 2 3 37 24 77 46 237 129 512 183 782 152z m115 -339 c408
-120 694 -459 741 -879 32 -289 -79 -598 -292 -810 -170 -171 -372 -266 -620
-294 -170 -19 -352 13 -526 92 l-63 29 56 83 c104 154 181 344 220 543 27 135
25 405 -4 542 -40 187 -120 378 -223 529 l-48 72 79 36 c69 31 176 66 250 80
14 2 99 3 190 1 134 -2 179 -7 240 -24z"/>
<path d="M1505 2880 c-398 -86 -709 -360 -848 -747 -79 -218 -79 -501 -2 -734
119 -357 429 -646 793 -738 558 -143 1134 149 1346 682 114 287 103 625 -29
904 -145 306 -418 534 -742 620 -137 36 -384 42 -518 13z m494 -139 c40 -12
108 -38 151 -57 l78 -36 -53 -79 c-100 -149 -176 -332 -217 -522 -31 -146 -31
-418 0 -563 43 -197 114 -372 216 -523 l55 -83 -62 -28 c-103 -47 -186 -70
-306 -88 -302 -43 -616 65 -840 290 -213 212 -324 521 -292 810 50 443 366
796 801 893 100 22 372 14 469 -14z m413 -230 l62 -59 -36 -54 c-253 -381
-256 -873 -9 -1256 23 -34 41 -66 41 -71 0 -13 -122 -112 -134 -108 -16 5 -93
122 -138 211 -45 90 -99 247 -119 351 -21 106 -19 388 4 495 23 106 58 212
102 307 39 84 140 243 155 243 5 0 38 -26 72 -59z m214 -277 c165 -311 158
-673 -18 -976 -21 -38 -43 -68 -48 -68 -5 0 -27 30 -49 68 -137 230 -172 523
-96 786 36 125 125 301 148 293 6 -2 35 -48 63 -103z"/>
</g>
</svg>
